<svg width="16" height="13" viewBox="0 0 16 13" fill="none" xmlns="http://www.w3.org/2000/svg">
<path d="M7.446 4.07313C7.40681 3.97221 7.47069 3.85935 7.57895 3.85935C8.97369 3.85935 10.1053 4.98595 10.1053 6.42831C10.1053 7.84658 8.97369 8.99726 7.57895 8.99726C6.16053 8.99726 5.05263 7.84658 5.05263 6.42831C5.05263 6.31905 5.16712 6.25496 5.26861 6.29541C5.46198 6.3725 5.67344 6.42831 5.89474 6.42831C6.82369 6.42831 7.57895 5.6603 7.57895 4.71567C7.57895 4.4884 7.52297 4.27134 7.446 4.07313ZM12.6474 2.59093C13.879 3.75231 14.7026 5.11975 15.0921 6.09916C15.1789 6.31056 15.1789 6.54605 15.0921 6.75745C14.7026 7.71278 13.879 9.08022 12.6474 10.2657C11.4079 11.4378 9.70527 12.4225 7.57895 12.4225C5.45263 12.4225 3.75 11.4378 2.51106 10.2657C1.27948 9.08022 0.456319 7.71278 0.0647664 6.75745C-0.0215888 6.54605 -0.0215888 6.31056 0.0647664 6.09916C0.456319 5.11975 1.27948 3.75231 2.51106 2.59093C3.75 1.41992 5.45263 0.434082 7.57895 0.434082C9.70527 0.434082 11.4079 1.41992 12.6474 2.59093ZM7.57895 2.57488C5.48685 2.57488 3.78948 4.30089 3.78948 6.42831C3.78948 8.55572 5.48685 10.2817 7.57895 10.2817C9.67105 10.2817 11.3684 8.55572 11.3684 6.42831C11.3684 4.30089 9.67105 2.57488 7.57895 2.57488Z" fill="white"/>
</svg>
