<svg width="15" height="13" viewBox="0 0 15 13" fill="none" xmlns="http://www.w3.org/2000/svg">
<path d="M0 4.50685V4.34805C0 2.43416 1.38459 0.801737 3.27237 0.48741C4.49745 0.279593 5.7938 0.686466 6.68726 1.58044L6.69938 1.59253C6.87243 1.76512 7.15416 1.75964 7.32035 1.58044C8.23848 0.686466 9.51016 0.279593 10.7599 0.48741C12.6482 0.801737 14.0323 2.43416 14.0323 4.34805V4.50685C14.0323 5.64314 13.5609 6.73014 12.7277 7.50501L7.77531 12.1241C7.56976 12.3157 7.29843 12.4225 7.01614 12.4225C6.73385 12.4225 6.46252 12.3157 6.25697 12.1241L1.30429 7.50501C0.472219 6.73014 0 5.64314 0 4.50685Z" fill="white"/>
</svg>
