<svg width="24" height="24" viewBox="0 0 24 24" fill="none" xmlns="http://www.w3.org/2000/svg">
<g clip-path="url(#clip0_616_195)">
<path opacity="0.972" fill-rule="evenodd" clip-rule="evenodd" d="M10.9922 -0.0234375C11.6484 -0.0234375 12.3047 -0.0234375 12.9609 -0.0234375C17.5417 0.519778 20.862 2.8479 22.9219 6.96094C23.4873 8.23842 23.8388 9.56653 23.9766 10.9453C23.9766 11.6328 23.9766 12.3203 23.9766 13.0078C23.5478 16.8006 21.7822 19.7927 18.6797 21.9844C16.9355 23.1204 15.0292 23.7845 12.9609 23.9766C12.3047 23.9766 11.6484 23.9766 10.9922 23.9766C6.26517 23.4131 2.89798 20.9756 0.890625 16.6641C0.407968 15.4834 0.103281 14.2647 -0.0234375 13.0078C-0.0234375 12.3203 -0.0234375 11.6328 -0.0234375 10.9453C0.561661 6.24352 2.99916 2.89194 7.28906 0.890625C8.48381 0.400508 9.71822 0.09582 10.9922 -0.0234375ZM11.6953 1.85156C15.6284 1.89928 18.6362 3.57116 20.7188 6.86719C22.5963 10.3782 22.5494 13.8625 20.5781 17.3203C18.5466 20.3799 15.6794 21.9736 11.9766 22.1016C7.63805 21.899 4.53646 19.8521 2.67188 15.9609C1.33294 12.5376 1.66106 9.28758 3.65625 6.21094C5.64488 3.50149 8.32458 2.04837 11.6953 1.85156Z" fill="#375C00"/>
<path opacity="0.968" fill-rule="evenodd" clip-rule="evenodd" d="M8.64751 7.66406C8.9005 7.67245 9.13487 7.74277 9.35064 7.875C10.2491 8.77345 11.1475 9.67186 12.0459 10.5703C12.96 9.65625 13.8741 8.74219 14.7881 7.82813C15.6057 7.50248 16.1057 7.76812 16.2881 8.625C16.2741 8.87953 16.1882 9.10613 16.0303 9.30469C15.1547 10.1725 14.2875 11.0475 13.4288 11.9297C14.3187 12.8431 15.2172 13.7494 16.1241 14.6484C16.419 15.2477 16.2862 15.7243 15.7256 16.0781C15.3566 16.2023 15.0129 16.1555 14.6944 15.9375C13.8109 15.0462 12.9203 14.1634 12.0225 13.2891C11.1091 14.179 10.2028 15.0775 9.30376 15.9844C8.80271 16.2539 8.3574 16.1836 7.96782 15.7734C7.72567 15.3284 7.75689 14.9065 8.06157 14.5078C8.9515 13.6725 9.81868 12.8132 10.6631 11.9297C9.77317 11.0163 8.87471 10.11 7.96782 9.21094C7.61185 8.4248 7.83845 7.90917 8.64751 7.66406Z" fill="#375C00"/>
</g>
<defs>
<clipPath id="clip0_616_195">
<rect width="24" height="24" fill="white"/>
</clipPath>
</defs>
</svg>
