<svg width="13" height="15" viewBox="0 0 13 15" fill="none" xmlns="http://www.w3.org/2000/svg">
<path d="M6.5 7.3063C5.60625 7.3063 4.875 6.64873 4.875 5.84504C4.875 5.04135 5.60625 4.38378 6.5 4.38378C7.39375 4.38378 8.125 5.04135 8.125 5.84504C8.125 6.64873 7.39375 7.3063 6.5 7.3063ZM11.375 5.99117C11.375 3.33898 9.22188 1.46126 6.5 1.46126C3.77813 1.46126 1.625 3.33898 1.625 5.99117C1.625 7.70084 3.20937 9.9658 6.5 12.6691C9.79062 9.9658 11.375 7.70084 11.375 5.99117ZM6.5 0C9.9125 0 13 2.35263 13 5.99117C13 8.41686 10.8306 11.2882 6.5 14.6126C2.16937 11.2882 0 8.41686 0 5.99117C0 2.35263 3.0875 0 6.5 0Z" fill="#F4ECDF"/>
</svg>
