<svg width="54" height="58" viewBox="0 0 54 58" fill="none" xmlns="http://www.w3.org/2000/svg">
<path d="M27.207 54.4188C22.6547 54.9824 18.0399 54.1106 14.007 51.925C9.97399 49.7394 6.7241 46.3491 4.71094 42.2273C2.69778 38.1055 2.02183 33.4581 2.77744 28.9336C3.53305 24.4091 5.68251 20.2335 8.92578 16.9896L23.3504 2.56502C23.655 2.26071 24.0681 2.08978 24.4987 2.08978C24.9293 2.08978 25.3423 2.26071 25.647 2.56502L40.0716 16.9896C42.9404 19.8565 44.9617 23.4599 45.9127 27.4025C46.8637 31.3452 46.7075 35.4739 45.4612 39.3334M35.332 50.1667L40.7487 55.5834L51.582 44.75" stroke="#779243" stroke-width="4" stroke-linecap="round" stroke-linejoin="round"/>
</svg>
