<svg width="16" height="15" viewBox="0 0 16 15" fill="none" xmlns="http://www.w3.org/2000/svg">
<path d="M15.0667 14.6126C13.1556 14.6126 11.2927 14.2235 9.47822 13.4452C7.66311 12.6675 6.0557 11.6392 4.656 10.3603C3.2557 9.082 2.12978 7.61398 1.27822 5.95626C0.426074 4.29908 0 2.5978 0 0.852402C0 0.608859 0.0888888 0.405906 0.266667 0.243543C0.444444 0.0811811 0.666667 0 0.933334 0H4.53333C4.74074 0 4.92593 0.0608858 5.08889 0.182657C5.25185 0.304429 5.34815 0.460026 5.37778 0.649449L5.95556 3.49079C5.98519 3.68021 5.98163 3.85259 5.94489 4.00791C5.90756 4.16378 5.82222 4.3026 5.68889 4.42437L3.55556 6.41331C4.17778 7.38748 4.95556 8.30077 5.88889 9.15317C6.82222 10.0056 7.85185 10.743 8.97778 11.3654L11.0667 9.4576C11.2 9.33583 11.3742 9.24437 11.5893 9.18321C11.8039 9.12259 12.0148 9.10582 12.2222 9.13288L15.2889 9.70114C15.4963 9.74174 15.6667 9.83293 15.8 9.97472C15.9333 10.1171 16 10.2829 16 10.4724V13.7602C16 14.0037 15.9111 14.2067 15.7333 14.3691C15.5556 14.5314 15.3333 14.6126 15.0667 14.6126Z" fill="#F4ECDF"/>
</svg>
